<?xml version="1.0"?>
<!--Icons from directory ""-->
<svg xmlns="http://www.w3.org/2000/svg" width="74" height="224" viewBox="0 0 74 224"><svg width="16" height="20" id="bag" y="0"><g stroke="#000" stroke-width="2" fill="none" fill-rule="evenodd"><path d="M1 6v13h14V6z"/><path d="M4 10V5a4 4 0 0 1 4-4h.058A3.942 3.942 0 0 1 12 4.942V10" stroke-linecap="round"/></g></svg><svg width="29" height="23" id="cart" y="20"><g fill="none" fill-rule="evenodd"><g stroke="#000" stroke-width="2"><path d="M1 9v13h14V9H1z"/><path d="M4 13V8a4 4 0 0 1 4-4h.058A3.942 3.942 0 0 1 12 7.942V13" stroke-linecap="round"/></g><g transform="translate(15)"><circle fill="#7DC242" cx="7" cy="7" r="7"/><path d="M9 10H5v-.72l1.522-1.534c.45-.46.747-.788.894-.98.146-.194.253-.375.32-.545.068-.17.102-.352.102-.546 0-.267-.08-.477-.24-.631-.16-.154-.382-.23-.665-.23-.226 0-.444.041-.656.125-.21.083-.455.234-.732.453l-.513-.627c.329-.278.647-.475.957-.591.31-.116.639-.174.989-.174.549 0 .989.144 1.32.43.33.288.496.675.496 1.16 0 .267-.048.52-.143.76-.096.24-.242.488-.44.743s-.527.6-.987 1.034l-1.025.995v.04H9V10z" fill="#FFF" fill-rule="nonzero"/></g></g></svg><svg width="16" height="16" id="dot" y="43"><g transform="translate(.7)" fill="none" fill-rule="evenodd"><circle fill="#7DC242" cx="7.65" cy="7.65" r="7.65"/><path d="M10.2 11.05h-5v-.84l1.902-1.79c.562-.537.934-.919 1.118-1.144.183-.225.317-.436.4-.635.085-.198.127-.41.127-.637 0-.311-.1-.557-.3-.736-.2-.18-.477-.27-.83-.27-.283 0-.556.05-.82.147-.264.098-.57.274-.916.529l-.64-.732c.41-.324.808-.554 1.195-.689a3.717 3.717 0 0 1 1.236-.203c.686 0 1.236.168 1.65.503.414.335.62.786.62 1.352 0 .312-.059.607-.178.887-.12.28-.303.57-.55.867-.248.297-.659.699-1.234 1.206l-1.282 1.16v.048H10.2v.977z" fill="#FFF" fill-rule="nonzero"/></g></svg><svg width="25" height="25" id="facebook-logo" y="59"><path d="M25 4.167C25 1.977 23.023 0 20.833 0H4.167C1.977 0 0 1.978 0 4.167v16.666C0 23.023 1.977 25 4.167 25H12.5v-9.444H9.444v-4.167H12.5V9.766c0-2.8 2.102-5.322 4.688-5.322h3.368v4.167h-3.369c-.368 0-.798.448-.798 1.118v1.66h4.167v4.167h-4.167V25h4.444C23.023 25 25 23.023 25 20.833V4.167z" fill="#FFF" fill-rule="evenodd"/></svg><svg width="25" height="25" id="instagram" y="84"><g fill="#FFF" fill-rule="evenodd"><path d="M17.188 0H7.813A7.813 7.813 0 0 0 0 7.813v9.375A7.813 7.813 0 0 0 7.813 25h9.375A7.813 7.813 0 0 0 25 17.187V7.813A7.813 7.813 0 0 0 17.187 0zm5.468 17.188a5.475 5.475 0 0 1-5.468 5.468H7.813a5.475 5.475 0 0 1-5.47-5.468V7.813a5.475 5.475 0 0 1 5.47-5.47h9.375a5.475 5.475 0 0 1 5.468 5.47v9.375z" fill-rule="nonzero"/><path d="M12.5 6.25a6.25 6.25 0 1 0 0 12.5 6.25 6.25 0 0 0 0-12.5zm0 10.156A3.912 3.912 0 0 1 8.594 12.5 3.91 3.91 0 0 1 12.5 8.594a3.91 3.91 0 0 1 3.906 3.906 3.912 3.912 0 0 1-3.906 3.906z" fill-rule="nonzero"/><circle cx="19.219" cy="5.781" r="1"/></g></svg><svg width="12" height="16" id="lock" y="109"><g transform="translate(0 1)" fill="none" fill-rule="evenodd"><path stroke="#4A4A4A" d="M.5 8.3h11v6.2H.5z"/><circle fill="#4A4A4A" cx="5.7" cy="10.5" r="1"/><path d="M2.135 7.54V3.762c0-1.55 1.452-3.422 3.85-3.422 2.319 0 3.897 1.872 3.897 3.422V7.54" stroke="#4A4A4A" stroke-linecap="square"/></g></svg><svg width="63" height="39" id="logo" y="125"><g transform="translate(2 2)" stroke-width="4" fill="none" fill-rule="evenodd"><circle stroke="#FFCF60" cx="17.5" cy="17.5" r="17.5"/><circle stroke="#7DC242" cx="40.833" cy="17.5" r="17.5"/></g></svg><svg width="16" height="16" id="plane" y="164"><g fill="#4A4A4A" fill-rule="nonzero"><path d="M2.267.6h2.8a.287.287 0 0 0 .266-.267C5.333.133 5.2 0 5.067 0h-2.8C2.133 0 2 .133 2 .333c0 .134.133.267.267.267zM4 2.333c0 .2.133.334.267.334h1.4c.2-.067.333-.2.333-.334C6 2.133 5.867 2 5.733 2H4.267C4.133 2 4 2.133 4 2.333zm-.667 0c0-.2-.133-.333-.266-.333h-2.8C.133 2 0 2.133 0 2.333s.133.334.267.334h2.8c.133-.067.266-.2.266-.334zm1.8 12.467H2.267c-.134 0-.267.133-.267.333s.133.334.267.334h2.866c.134 0 .267-.134.267-.334s-.133-.333-.267-.333z"/><path d="M14.733 6H11.8L8.267.133C8.2.067 8.133 0 8.067 0h-1.8c-.067 0-.134.067-.2.133C6 .2 6 .267 6 .4L7.533 6H4.6L3.467 4.133C3.4 4.067 3.333 4 3.267 4h-1c-.067 0-.2.067-.2.133C2 4.2 2 4.333 2 4.467l.6 2.666s0 .067.067.067v.267s0 .066-.067.066L2 10.2c0 .133 0 .2.067.267 0 .133.133.2.2.2h1c.066 0 .133-.067.2-.134L4.6 8.667h2.933l-1.066 4h-1.4c-.134 0-.267.133-.267.333s.133.333.267.333h1.2L6 14.267c0 .066 0 .2.067.266.066.067.133.134.2.134H8c.067 0 .2-.067.267-.134L11.8 8.667h2.933c.667 0 1.267-.6 1.267-1.334C16 6.6 15.467 6 14.733 6zM6.667.6h1.2L11.133 6h-3L6.667.6zM2.6 4.667h.6L4 6h-.067c-.333 0-.666.2-.933.4l-.4-1.733zM3.133 10H2.6L3 8.267c.2.2.533.4.933.4H4L3.133 10zm4.734 4.067h-1.2l1.466-5.4h3l-3.266 5.4zm6.866-6h-10.8c-.4 0-.666-.334-.666-.734 0-.4.333-.733.666-.733H14.8c.4 0 .667.333.667.733a.74.74 0 0 1-.734.734zM4.067 13c0-.2-.067-.333-.267-.333H1.067C.933 12.667.8 12.8.8 13s.133.333.267.333h2.8c.133-.066.2-.2.2-.333z"/></g></svg><svg width="13" height="13" id="shipping" y="180"><g fill="#4A4A4A" fill-rule="nonzero"><path d="M12.35 3.132L10.4.118A.451.451 0 0 0 10.105 0h-7.8a.325.325 0 0 0-.296.177L.06 3.132C0 3.19 0 3.25 0 3.309v9.336c0 .178.118.355.355.355h11.759a.381.381 0 0 0 .354-.355V3.31c-.059-.059-.059-.118-.118-.177zM9.927.65l1.537 2.305H7.8L7.564.65h2.363zm-4.432 0h1.36l.236 2.305H5.259L5.495.65zM5.2 3.664h1.95v2.009H5.2v-2.01zM2.482.65h2.423l-.296 2.364H.945L2.482.65zm9.277 11.7H.65V3.664h3.9v2.659H7.8v-2.66h3.9v8.687h.06z"/><path d="M1.95 8.332h5.2v.65h-5.2v-.65zm0 1.654H5.2v.65H1.95v-.65z"/></g></svg><svg width="74" height="11" id="stars" y="193"><g fill="none" fill-rule="evenodd"><path fill="#7DC242" d="M6 9l-3.527 1.854.674-3.927L.294 4.146l3.943-.573L6 0l1.763 3.573 3.943.573-2.853 2.781.674 3.927zM21.429 9l-3.527 1.854.673-3.927-2.853-2.781 3.943-.573L21.43 0l1.763 3.573 3.943.573-2.853 2.781.673 3.927zM36.857 9l-3.527 1.854.674-3.927-2.853-2.781 3.943-.573L36.857 0l1.763 3.573 3.943.573-2.853 2.781.674 3.927zM52.286 9l-3.527 1.854.674-3.927-2.854-2.781 3.943-.573L52.286 0l1.763 3.573 3.943.573-2.853 2.781.673 3.927z"/><path d="M70.577 9.94l-.547-3.188 2.316-2.257-3.2-.465-1.432-2.9-1.431 2.9-3.2.465 2.315 2.257-.546 3.188 2.862-1.505 2.863 1.505z" stroke="#7DC242"/></g></svg><svg width="18" height="20" id="user" y="204"><g stroke="#000" stroke-width="2" fill="none" fill-rule="evenodd"><circle cx="9" cy="5" r="4"/><path d="M1 19h16v-1a6 6 0 0 0-6-6H7a6 6 0 0 0-6 6v1z"/></g></svg></svg>
